HIERARCHY
ROOT Hips
{
  OFFSET 74.0196 97.4445 -31.1285
  CHANNELS 6 Xposition Yposition Zposition Zrotation Xrotation Yrotation
  JOINT RightUpLeg
  {
    OFFSET -8.9458 -8.66707 0.101652
    CHANNELS 3 Zrotation Xrotation Yrotation
    JOINT RightLeg
    {
      OFFSET -2.94875e-013 -44.4227 1.3727
      CHANNELS 3 Zrotation Xrotation Yrotation
      JOINT RightFoot
      {
        OFFSET 0.253549 -42.0924 -1.46059
        CHANNELS 3 Zrotation Xrotation Yrotation
        JOINT RightToes
        {
          OFFSET 0.04 -4.41509 8.4991
          CHANNELS 3 Zrotation Xrotation Yrotation
          End Site
          {
            OFFSET -0.08 -0.137448 9.77979
          }
        }
      }
    }
  }
  JOINT Spine
  {
    OFFSET -5.68434e-014 11.8905 -6.39488e-014
    CHANNELS 3 Zrotation Xrotation Yrotation
    JOINT Spine1
    {
      OFFSET 5.68434e-014 25.6574 0.127663
      CHANNELS 3 Zrotation Xrotation Yrotation
      JOINT HEad
      {
        OFFSET 4.26326e-014 8.73416 0.011341
        CHANNELS 3 Zrotation Xrotation Yrotation
        End Site
        {
          OFFSET -0.29 12.7742 2.51395
        }
      }
      JOINT LeftShoulder1
      {
        OFFSET 8.99 -0.362252 -0.22
        CHANNELS 3 Zrotation Xrotation Yrotation
        JOINT LeftArm
        {
          OFFSET 10.2827 -0.00338 0.322123
          CHANNELS 3 Zrotation Xrotation Yrotation
          JOINT LeftForeArm
          {
            OFFSET 32.7669 0.099144 -1.42434
            CHANNELS 3 Zrotation Xrotation Yrotation
            JOINT LeftHand
            {
              OFFSET 27.5643 0.085362 1.02216
              CHANNELS 3 Zrotation Xrotation Yrotation
              End Site
              {
                OFFSET 16.7443 -0.6 1.50291
              }
            }
          }
        }
      }
      JOINT RightShoulder
      {
        OFFSET -8.99 -0.362252 -0.22
        CHANNELS 3 Zrotation Xrotation Yrotation
        JOINT RightArm
        {
          OFFSET -10.2827 -0.00338 0.322123
          CHANNELS 3 Zrotation Xrotation Yrotation
          JOINT RightForeArm
          {
            OFFSET -32.8971 0.099144 -1.42434
            CHANNELS 3 Zrotation Xrotation Yrotation
            JOINT RightHand
            {
              OFFSET -27.4921 0.085362 1.02216
              CHANNELS 3 Zrotation Xrotation Yrotation
              End Site
              {
                OFFSET -16.6312 -0.6 1.50291
              }
            }
          }
        }
      }
    }
  }
  JOINT LeftUpLeg
  {
    OFFSET 8.9458 -8.66707 0.101652
    CHANNELS 3 Zrotation Xrotation Yrotation
    JOINT LeftLeg
    {
      OFFSET 7.10543e-014 -44.4227 1.3727
      CHANNELS 3 Zrotation Xrotation Yrotation
      JOINT LeftFoot
      {
        OFFSET -0.253549 -42.0924 -1.46059
        CHANNELS 3 Zrotation Xrotation Yrotation
        JOINT LeftToes
        {
          OFFSET -0.04 -4.41509 8.4991
          CHANNELS 3 Zrotation Xrotation Yrotation
          End Site
          {
            OFFSET 0.08 -0.047448 9.77979
          }
        }
      }
    }
  }
}
MOTION
Frames:	11
Frame Time:	0.0166667
-27.2134 89.7275 27.1176 2.942 4.1129 138.79 -24.1547 -22.1657 7.80155 1.74775 30.6205 5.37105 6.94415 8.4665 -1.04129 -12.1189 -28.3751 -7.92442 3.59722 8.32997 -3.42411 2.05117 16.1334 -5.95112 2.93001 -3.70691 -11.6685 -5.03302e-021 -3.88251e-019 1.21329e-020 -83.6347 -2.75861 -40.3158 -15.8504 42.2561 -112.074 6.54677 9.62745 -1.04006 26.1135 -2.73819 -12.1104 56.1314 -10.9999 31.494 -16.4116 27.365 129.81 -18.8559 9.44432 -1.42187 22.5772 -7.26768 -9.63107 -23.0798 45.0749 8.99573 -12.3728 18.6054 2.70509 50.7412 -56.2141 34.8862 
-27.6387 89.54 27.1967 3.32753 4.12879 139.114 -23.8671 -22.2308 8.49592 1.90807 31.1443 4.39654 7.28817 8.40004 -1.08593 -11.8796 -27.9576 -7.73314 3.6973 8.33695 -3.67489 2.27759 16.1295 -6.46296 3.27185 -2.50849 -10.6465 -5.03302e-021 -3.88251e-019 1.21329e-020 -83.6237 -3.26213 -42.2104 -15.9393 42.2331 -111.362 6.54677 9.62745 -1.04006 26.9961 -2.96608 -12.6018 55.8446 -9.53755 28.7568 -16.143 27.4548 131.919 -19.0318 9.48632 -1.71435 23.1181 -6.33956 -9.2565 -22.4997 43.7821 8.15167 -12.8104 20.0665 2.96122 56.1758 -58.9951 38.5138 
-28.0496 89.2721 27.3393 3.87852 4.20051 139.482 -23.4311 -22.4794 9.33231 2.16464 32.1234 3.23857 7.91279 9.12475 -1.21844 -12.0959 -28.8579 -7.57406 3.76124 8.38801 -3.92513 2.43459 16.2147 -6.97347 3.91643 -1.34354 -9.81476 -5.03302e-021 -3.88251e-019 1.21329e-020 -83.3977 -3.70878 -44.3623 -15.9639 42.0709 -110.572 6.54677 9.62745 -1.04006 27.5993 -3.10518 -12.8641 55.8651 -8.62261 27.0003 -15.8173 27.6981 133.361 -19.3937 9.48516 -1.75866 23.6208 -5.31527 -9.22662 -21.7469 42.4699 7.80375 -12.8304 21.6741 3.13761 62.474 -61.4982 43.0992 
-28.4098 88.9689 27.543 4.52989 4.32287 139.883 -22.9172 -22.9304 10.2319 2.58304 33.5272 2.00499 8.73689 10.4692 -1.43227 -12.5912 -30.6227 -7.4078 3.77488 8.48067 -4.14798 2.47689 16.3859 -7.42519 4.79562 -0.303235 -9.24642 -5.03302e-021 -3.88251e-019 1.21329e-020 -82.9196 -4.02711 -46.6189 -15.8838 41.733 -109.785 6.54677 9.62745 -1.04006 27.9728 -3.15136 -12.8872 56.1332 -8.31663 26.1379 -15.4735 28.009 134.44 -19.8036 9.46665 -1.70307 24.0547 -4.27439 -9.47042 -20.8437 41.2278 7.74741 -12.4965 23.1839 3.20873 68.7687 -63.3778 47.9883 
-28.6817 88.6749 27.8013 5.20006 4.47941 140.332 -22.4158 -23.5589 11.1313 3.2323 35.2522 0.766998 9.64368 12.1775 -1.70771 -13.1677 -32.7419 -7.18764 3.73142 8.6002 -4.32116 2.37465 16.6161 -7.76979 5.83464 0.547599 -8.98982 -5.03302e-021 -3.88251e-019 1.21329e-020 -82.1883 -4.16318 -48.8187 -15.6908 41.2326 -109.069 6.54677 9.62745 -1.04006 28.166 -3.11086 -12.6842 56.5993 -8.65673 26.0423 -15.1872 28.2877 135.398 -20.1284 9.46696 -1.74958 24.396 -3.32478 -9.88846 -19.8135 40.1458 7.79734 -11.9486 24.444 3.18579 74.1901 -64.5697 52.403 
-28.8323 88.4314 28.106 5.80713 4.64897 140.867 -22.0191 -24.2964 11.9733 4.15319 37.1348 -0.434595 10.4976 13.9202 -2.0034 -13.621 -34.705 -6.85447 3.63519 8.72543 -4.43019 2.12187 16.8645 -7.97506 6.95597 1.17493 -9.06544 -5.03302e-021 -3.88251e-019 1.21329e-020 -81.2503 -4.08235 -50.8083 -15.4097 40.6268 -108.474 6.54677 9.62745 -1.04006 28.2154 -2.99949 -12.2966 57.2266 -9.64773 26.571 -15.0392 28.4472 136.388 -20.2572 9.52056 -2.08255 24.6355 -2.56614 -10.3856 -18.6806 39.2662 7.78605 -11.3766 25.4049 3.11559 78.1899 -65.2183 55.7686 
-28.838 88.2748 28.45 6.28323 4.8117 141.533 -21.8051 -25.0425 12.7011 5.33391 38.9707 -1.58409 11.1595 15.341 -2.25712 -13.7783 -36.0713 -6.36073 3.50134 8.83568 -4.46796 1.73769 17.09 -8.02493 8.08202 1.56952 -9.46628 -5.03302e-021 -3.88251e-019 1.21329e-020 -80.1926 -3.76726 -52.4604 -15.0843 39.9961 -108.031 6.54677 9.62745 -1.04006 28.1369 -2.83962 -11.7891 57.9931 -11.2554 27.5982 -15.0814 28.4389 137.452 -20.1077 9.64681 -2.81465 24.7834 -2.05973 -10.8928 -17.4783 38.5587 7.56272 -10.9695 26.0828 3.05935 80.6062 -65.5321 57.8318 
-28.6863 88.2344 28.8285 6.58242 4.95218 142.362 -21.8265 -25.6833 13.266 6.70327 40.5369 -2.69329 11.5029 16.1316 -2.4004 -13.5476 -36.528 -5.71391 3.34963 8.91558 -4.43208 1.2609 17.2615 -7.91565 9.13865 1.73728 -10.16 -5.03302e-021 -3.88251e-019 1.21329e-020 -79.1186 -3.21817 -53.688 -14.7585 39.4196 -107.761 6.54677 9.62745 -1.04006 27.9281 -2.6568 -11.241 58.8934 -13.4007 29.0424 -15.324 28.261 138.52 -19.631 9.84128 -3.96124 24.8682 -1.81638 -11.37 -16.2528 37.9288 6.999 -10.8629 26.504 3.0659 81.4659 -65.6757 58.5283 
-28.3744 88.3306 29.2403 6.68202 5.05993 143.365 -22.1055 -26.1118 13.6441 8.14635 41.6187 -3.8018 11.442 16.0914 -2.38396 -12.9341 -35.8862 -5.00206 3.19606 8.95631 -4.32247 0.740309 17.3611 -7.65225 10.0605 1.69254 -11.0927 -5.03302e-021 -3.88251e-019 1.21329e-020 -78.1219 -2.45789 -54.4517 -14.4623 38.955 -107.675 6.54677 9.62745 -1.04006 27.5759 -2.47577 -10.7323 59.9381 -15.9557 30.8793 -15.7526 27.9409 139.433 -18.8207 10.077 -5.448 24.9262 -1.80447 -11.7944 -15.0586 37.2535 6.00293 -11.1061 26.6645 3.15375 80.7712 -65.7235 57.8125 
-27.9061 88.5717 29.6866 6.57978 5.12802 144.529 -22.6338 -26.2463 13.8495 9.53796 42.0406 -4.96547 10.9717 15.14 -2.20142 -11.9962 -34.0109 -4.36769 3.04766 8.95429 -4.14159 0.224935 17.3823 -7.24844 10.7969 1.45654 -12.1957 -5.03302e-021 -3.88251e-019 1.21329e-020 -77.2656 -1.53746 -54.7565 -14.2086 38.6293 -107.775 6.54677 9.62745 -1.04006 27.0661 -2.31567 -10.3274 61.1489 -18.7412 33.1359 -16.3613 27.504 139.985 -17.725 10.3154 -7.14272 24.9898 -1.96984 -12.1501 -13.9423 36.4232 4.53318 -11.6644 26.5284 3.3088 78.4397 -65.6503 55.6055 
-27.2892 88.9512 30.17 6.2882 5.15153 145.83 -23.3784 -26.0423 13.9313 10.7758 41.6951 -6.23161 10.2005 13.3033 -1.89666 -10.777 -30.7686 -3.93971 2.90135 8.90849 -3.89713 -0.24373 17.3241 -6.72952 11.3174 1.06069 -13.3948 -5.03302e-021 -3.88251e-019 1.21329e-020 -76.5749 -0.537084 -54.6438 -13.9972 38.4397 -108.049 6.54677 9.62745 -1.04006 26.3892 -2.18433 -10.0553 62.5438 -21.5365 35.8661 -17.172 26.9522 139.949 -16.4561 10.522 -8.89295 25.0753 -2.25797 -12.4259 -12.922 35.3735 2.60735 -12.4492 26.0565 3.49533 74.4053 -65.342 51.8773 
